<?xml version="1.0"?>
<svg width="366" height="870" xmlns="http://www.w3.org/2000/svg" version="1.1">
 <polygon points="348,3 277,3 274,6 274,29 345,29 348,26 348,3" stroke="#C0C0C0" fill="#FFFFFF"/>
 <polyline points="345,6 274,6" stroke="#C0C0C0" fill="none"/>
 <polyline points="345,6 345,29" stroke="#C0C0C0" fill="none"/>
 <polyline points="345,6 348,3" stroke="#C0C0C0" fill="none"/>
 <text x="281" y="19" fill="#000000" font-family="Arial" font-size="12">screen.c</text>
 <polygon points="187,421 142,421 139,424 139,447 184,447 187,444 187,421" stroke="#C0C0C0" fill="#FFFF00"/>
 <polyline points="184,424 139,424" stroke="#C0C0C0" fill="none"/>
 <polyline points="184,424 184,447" stroke="#C0C0C0" fill="none"/>
 <polyline points="184,424 187,421" stroke="#C0C0C0" fill="none"/>
 <text x="146" y="437" fill="#000000" font-family="Arial" font-size="12">diff.c</text>
 <polyline points="165,415 169,389 174,354 180,313 188,269 198,222 208,176 219,132 232,93 245,61 260,38 261,37 261,36 262,36 263,35 264,34 264,33 265,33 266,32 267,32 268,31" stroke="#CD0000" fill="none"/>
 <polygon points="165,415 163,417 165,421 167,418 165,415" stroke="#CD0000" fill="#CD0000"/>
 <polygon points="268,31 272,31 273,27 270,27 268,31" stroke="#CD0000" fill="#CD0000"/>
 <polygon points="357,47 268,47 265,50 265,73 354,73 357,70 357,47" stroke="#C0C0C0" fill="#FFFFFF"/>
 <polyline points="354,50 265,50" stroke="#C0C0C0" fill="none"/>
 <polyline points="354,50 354,73" stroke="#C0C0C0" fill="none"/>
 <polyline points="354,50 357,47" stroke="#C0C0C0" fill="none"/>
 <text x="272" y="63" fill="#000000" font-family="Arial" font-size="12">message.c</text>
 <polyline points="165,421 169,399 174,369 181,332 189,292 199,250 209,208 221,168 233,132 246,103 260,82 261,81 261,81 262,80 262,80 263,79 264,78 264,78 265,77 265,77 266,76" stroke="#0000CD" fill="none"/>
 <polygon points="266,74 271,73 268,77 266,74" stroke="#0000CD" fill="#0000CD"/>
 <polygon points="350,91 275,91 272,94 272,117 347,117 350,114 350,91" stroke="#C0C0C0" fill="#FFFFFF"/>
 <polyline points="347,94 272,94" stroke="#C0C0C0" fill="none"/>
 <polyline points="347,94 347,117" stroke="#C0C0C0" fill="none"/>
 <polyline points="347,94 350,91" stroke="#C0C0C0" fill="none"/>
 <text x="279" y="107" fill="#000000" font-family="Arial" font-size="12">window.c</text>
 <polyline points="164,414 165,395 168,372 171,345 177,314 184,282 193,249 205,216 220,184 238,154 260,126 261,125 261,125 262,124 262,124 263,123 264,122 264,122 265,121 265,121 266,120" stroke="#CD0000" fill="none"/>
 <polygon points="164,415 162,418 163,421 166,418 164,415" stroke="#CD0000" fill="#CD0000"/>
 <polygon points="266,120 270,120 271,117 268,117 266,120" stroke="#CD0000" fill="#CD0000"/>
 <polygon points="348,135 277,135 274,138 274,161 345,161 348,158 348,135" stroke="#C0C0C0" fill="#FFFFFF"/>
 <polyline points="345,138 274,138" stroke="#C0C0C0" fill="none"/>
 <polyline points="345,138 345,161" stroke="#C0C0C0" fill="none"/>
 <polyline points="345,138 348,135" stroke="#C0C0C0" fill="none"/>
 <text x="281" y="151" fill="#000000" font-family="Arial" font-size="12">normal.c</text>
 <polyline points="165,415 167,398 171,378 175,355 181,329 189,302 199,274 211,246 225,219 241,193 260,170 261,169 261,169 262,168 263,167 264,167 264,166 265,165 266,164 267,164 268,163" stroke="#CD0000" fill="none"/>
 <polygon points="165,415 163,418 164,421 167,418 165,415" stroke="#CD0000" fill="#CD0000"/>
 <polygon points="268,163 272,163 273,160 270,160 268,163" stroke="#CD0000" fill="#CD0000"/>
 <polygon points="356,179 269,179 266,182 266,205 353,205 356,202 356,179" stroke="#C0C0C0" fill="#FFFFFF"/>
 <polyline points="353,182 266,182" stroke="#C0C0C0" fill="none"/>
 <polyline points="353,182 353,205" stroke="#C0C0C0" fill="none"/>
 <polyline points="353,182 356,179" stroke="#C0C0C0" fill="none"/>
 <text x="273" y="195" fill="#000000" font-family="Arial" font-size="12">ex_cmds.c</text>
 <polyline points="166,415 169,401 174,384 179,364 186,343 194,321 204,298 215,275 228,254 243,233 260,214 261,213 261,213 262,212 262,212 263,211 264,210 265,210 265,209 266,209 267,208" stroke="#CD0000" fill="none"/>
 <polygon points="166,415 164,418 165,421 168,418 166,415" stroke="#CD0000" fill="#CD0000"/>
 <polygon points="267,208 271,208 272,205 268,205 267,208" stroke="#CD0000" fill="#CD0000"/>
 <polygon points="346,223 279,223 276,226 276,249 343,249 346,246 346,223" stroke="#C0C0C0" fill="#FFFFFF"/>
 <polyline points="343,226 276,226" stroke="#C0C0C0" fill="none"/>
 <polyline points="343,226 343,249" stroke="#C0C0C0" fill="none"/>
 <polyline points="343,226 346,223" stroke="#C0C0C0" fill="none"/>
 <text x="284" y="239" fill="#000000" font-family="Arial" font-size="12">misc1.c</text>
 <polyline points="169,415 173,403 178,389 184,374 192,357 200,340 210,322 221,305 232,288 246,272 260,258 261,257 262,256 263,256 264,255 265,254 266,253 267,252 269,252 270,251 271,250" stroke="#CD0000" fill="none"/>
 <polygon points="169,415 166,417 167,421 170,418 169,415" stroke="#CD0000" fill="#CD0000"/>
 <polygon points="271,250 274,251 276,247 272,247 271,250" stroke="#CD0000" fill="#CD0000"/>
 <polygon points="342,267 283,267 280,270 280,293 339,293 342,290 342,267" stroke="#C0C0C0" fill="#FFFFFF"/>
 <polyline points="339,270 280,270" stroke="#C0C0C0" fill="none"/>
 <polyline points="339,270 339,293" stroke="#C0C0C0" fill="none"/>
 <polyline points="339,270 342,267" stroke="#C0C0C0" fill="none"/>
 <text x="288" y="283" fill="#000000" font-family="Arial" font-size="12">undo.c</text>
 <polyline points="170,421 175,412 180,402 187,390 195,378 204,365 213,352 224,338 235,325 247,313 260,302 262,301 263,300 265,299 266,298 268,297 269,296 271,295 272,294 274,293 275,292" stroke="#0000CD" fill="none"/>
 <polygon points="275,291 280,290 276,294 275,291" stroke="#0000CD" fill="#0000CD"/>
 <polygon points="341,311 284,311 281,314 281,337 338,337 341,334 341,311" stroke="#C0C0C0" fill="#FFFFFF"/>
 <polyline points="338,314 281,314" stroke="#C0C0C0" fill="none"/>
 <polyline points="338,314 338,337" stroke="#C0C0C0" fill="none"/>
 <polyline points="338,314 341,311" stroke="#C0C0C0" fill="none"/>
 <text x="288" y="327" fill="#000000" font-family="Arial" font-size="12">fileio.c</text>
 <polyline points="179,416 185,410 191,403 198,396 206,389 214,381 223,374 232,366 241,359 250,352 260,346 262,345 263,344 265,343 266,342 268,342 269,341 271,340 272,339 274,339 275,338" stroke="#CD0000" fill="none"/>
 <polygon points="179,417 175,417 175,421 178,420 179,417" stroke="#CD0000" fill="#CD0000"/>
 <polygon points="275,338 279,338 280,335 277,335 275,338" stroke="#CD0000" fill="#CD0000"/>
 <polygon points="337,355 288,355 285,358 285,381 334,381 337,378 337,355" stroke="#C0C0C0" fill="#FFFFFF"/>
 <polyline points="334,358 285,358" stroke="#C0C0C0" fill="none"/>
 <polyline points="334,358 334,381" stroke="#C0C0C0" fill="none"/>
 <polyline points="334,358 337,355" stroke="#C0C0C0" fill="none"/>
 <text x="292" y="371" fill="#000000" font-family="Arial" font-size="12">fold.c</text>
 <polyline points="193,420 199,417 205,414 212,411 218,408 225,405 232,402 239,399 246,396 253,393 260,390 262,389 264,388 266,387 268,386 270,386 271,385 273,384 275,383 277,383 279,382" stroke="#CD0000" fill="none"/>
 <polygon points="193,420 190,420 188,423 191,423 193,420" stroke="#CD0000" fill="#CD0000"/>
 <polygon points="279,382 283,382 284,379 281,379 279,382" stroke="#CD0000" fill="#CD0000"/>
 <polygon points="346,399 279,399 276,402 276,425 343,425 346,422 346,399" stroke="#C0C0C0" fill="#FFFFFF"/>
 <polyline points="343,402 276,402" stroke="#C0C0C0" fill="none"/>
 <polyline points="343,402 343,425" stroke="#C0C0C0" fill="none"/>
 <polyline points="343,402 346,399" stroke="#C0C0C0" fill="none"/>
 <text x="283" y="415" fill="#000000" font-family="Arial" font-size="12">option.c</text>
 <polyline points="194,429 201,428 208,427 215,426 223,425 231,424 239,423 246,422 254,420 262,419 269,418" stroke="#CD0000" fill="none"/>
 <polygon points="194,429 190,428 188,430 191,432 194,429" stroke="#CD0000" fill="#CD0000"/>
 <polygon points="269,418 273,420 275,417 272,416 269,418" stroke="#CD0000" fill="#CD0000"/>
 <polygon points="348,443 277,443 274,446 274,469 345,469 348,466 348,443" stroke="#C0C0C0" fill="#FFFFFF"/>
 <polyline points="345,446 274,446" stroke="#C0C0C0" fill="none"/>
 <polyline points="345,446 345,469" stroke="#C0C0C0" fill="none"/>
 <polyline points="345,446 348,443" stroke="#C0C0C0" fill="none"/>
 <text x="281" y="459" fill="#000000" font-family="Arial" font-size="12">termlib.c</text>
 <polyline points="188,438 195,439 202,440 210,441 218,442 227,444 235,445 243,446 252,448 260,449 268,450" stroke="#0000CD" fill="none"/>
 <polygon points="269,448 273,450 268,451 269,448" stroke="#0000CD" fill="#0000CD"/>
 <polygon points="344,487 281,487 278,490 278,513 341,513 344,510 344,487" stroke="#C0C0C0" fill="#FFFFFF"/>
 <polyline points="341,490 278,490" stroke="#C0C0C0" fill="none"/>
 <polyline points="341,490 341,513" stroke="#C0C0C0" fill="none"/>
 <polyline points="341,490 344,487" stroke="#C0C0C0" fill="none"/>
 <text x="286" y="503" fill="#000000" font-family="Arial" font-size="12">move.c</text>
 <polyline points="193,448 199,451 205,454 212,457 218,460 225,463 232,466 239,469 246,472 253,475 260,478 262,479 263,479 265,480 266,480 268,481 269,482 271,482 272,483 274,483 275,484" stroke="#CD0000" fill="none"/>
 <polygon points="193,448 191,445 188,445 190,448 193,448" stroke="#CD0000" fill="#CD0000"/>
 <polygon points="275,485 277,488 280,487 279,484 275,485" stroke="#CD0000" fill="#CD0000"/>
 <polygon points="354,531 271,531 268,534 268,557 351,557 354,554 354,531" stroke="#C0C0C0" fill="#FFFFFF"/>
 <polyline points="351,534 268,534" stroke="#C0C0C0" fill="none"/>
 <polyline points="351,534 351,557" stroke="#C0C0C0" fill="none"/>
 <polyline points="351,534 354,531" stroke="#C0C0C0" fill="none"/>
 <text x="275" y="547" fill="#000000" font-family="Arial" font-size="12">memline.c</text>
 <polyline points="175,447 181,453 187,460 194,467 202,475 211,483 220,492 230,500 240,508 250,515 260,522 261,523 262,523 264,524 265,525 266,526 267,526 268,527 270,528 271,528 272,529" stroke="#0000CD" fill="none"/>
 <polygon points="273,527 276,531 271,530 273,527" stroke="#0000CD" fill="#0000CD"/>
 <polygon points="361,575 264,575 261,578 261,601 358,601 361,598 361,575" stroke="#C0C0C0" fill="#FFFFFF"/>
 <polyline points="358,578 261,578" stroke="#C0C0C0" fill="none"/>
 <polyline points="358,578 358,601" stroke="#C0C0C0" fill="none"/>
 <polyline points="358,578 361,575" stroke="#C0C0C0" fill="none"/>
 <text x="268" y="591" fill="#000000" font-family="Arial" font-size="12">ex_docmd.c</text>
 <polyline points="170,447 175,456 180,466 187,478 195,490 204,503 213,516 224,530 235,543 247,555 260,566 261,567 262,567 263,568 264,569 265,569 266,570 267,571 268,571 269,572 270,572" stroke="#0000CD" fill="none"/>
 <polygon points="271,571 274,575 269,574 271,571" stroke="#0000CD" fill="#0000CD"/>
 <polygon points="350,619 275,619 272,622 272,645 347,645 350,642 350,619" stroke="#C0C0C0" fill="#FFFFFF"/>
 <polyline points="347,622 272,622" stroke="#C0C0C0" fill="none"/>
 <polyline points="347,622 347,645" stroke="#C0C0C0" fill="none"/>
 <polyline points="347,622 350,619" stroke="#C0C0C0" fill="none"/>
 <text x="279" y="635" fill="#000000" font-family="Arial" font-size="12">charset.c</text>
 <polyline points="167,447 171,458 176,472 182,488 189,505 198,523 208,541 219,560 231,578 245,595 260,610 261,611 261,611 262,612 263,612 264,613 264,614 265,614 266,615 267,615 268,616" stroke="#0000CD" fill="none"/>
 <polygon points="269,615 273,619 268,618 269,615" stroke="#0000CD" fill="#0000CD"/>
 <polygon points="342,663 283,663 280,666 280,689 339,689 342,686 342,663" stroke="#C0C0C0" fill="#FFFFFF"/>
 <polyline points="339,666 280,666" stroke="#C0C0C0" fill="none"/>
 <polyline points="339,666 339,689" stroke="#C0C0C0" fill="none"/>
 <polyline points="339,666 342,663" stroke="#C0C0C0" fill="none"/>
 <text x="287" y="679" fill="#000000" font-family="Arial" font-size="12">mark.c</text>
 <polyline points="166,453 169,467 174,484 179,504 186,525 194,547 204,570 215,593 228,614 243,635 260,654 261,655 263,656 264,657 265,658 267,659 268,660 270,661 271,662 273,663 274,664" stroke="#CD0000" fill="none"/>
 <polygon points="166,453 168,450 165,447 164,450 166,453" stroke="#CD0000" fill="#CD0000"/>
 <polygon points="274,664 276,667 279,667 278,664 274,664" stroke="#CD0000" fill="#CD0000"/>
 <polygon points="359,707 266,707 263,710 263,733 356,733 359,730 359,707" stroke="#C0C0C0" fill="#FFFFFF"/>
 <polyline points="356,710 263,710" stroke="#C0C0C0" fill="none"/>
 <polyline points="356,710 356,733" stroke="#C0C0C0" fill="none"/>
 <polyline points="356,710 359,707" stroke="#C0C0C0" fill="none"/>
 <text x="271" y="723" fill="#000000" font-family="Arial" font-size="12">os_riscos.c</text>
 <polyline points="164,447 166,462 169,482 173,505 179,532 187,560 197,589 208,618 223,647 240,674 260,698 261,699 261,699 262,700 263,700 264,701 264,702 265,702 266,703 266,703 267,704" stroke="#0000CD" fill="none"/>
 <polygon points="268,703 272,707 266,706 268,703" stroke="#0000CD" fill="#0000CD"/>
 <polygon points="339,751 286,751 283,754 283,777 336,777 339,774 339,751" stroke="#C0C0C0" fill="#FFFFFF"/>
 <polyline points="336,754 283,754" stroke="#C0C0C0" fill="none"/>
 <polyline points="336,754 336,777" stroke="#C0C0C0" fill="none"/>
 <polyline points="336,754 339,751" stroke="#C0C0C0" fill="none"/>
 <text x="291" y="767" fill="#000000" font-family="Arial" font-size="12">eval.c</text>
 <polyline points="164,454 165,473 168,496 171,523 177,554 184,586 193,619 205,652 220,684 238,714 260,742 262,743 263,745 265,746 266,748 268,749 270,750 272,751 273,752 275,753 277,754" stroke="#CD0000" fill="none"/>
 <polygon points="164,453 166,450 163,447 162,450 164,453" stroke="#CD0000" fill="#CD0000"/>
 <polygon points="277,754 279,757 283,757 281,754 277,754" stroke="#CD0000" fill="#CD0000"/>
 <polygon points="344,795 281,795 278,798 278,821 341,821 344,818 344,795" stroke="#C0C0C0" fill="#FFFFFF"/>
 <polyline points="341,798 278,798" stroke="#C0C0C0" fill="none"/>
 <polyline points="341,798 341,821" stroke="#C0C0C0" fill="none"/>
 <polyline points="341,798 344,795" stroke="#C0C0C0" fill="none"/>
 <text x="286" y="811" fill="#000000" font-family="Arial" font-size="12">buffer.c</text>
 <polyline points="166,454 170,478 176,509 183,545 191,584 200,625 211,666 222,704 234,738 247,766 260,786 261,787 262,788 263,789 264,790 266,791 267,792 268,793 270,794 271,795 272,796" stroke="#CD0000" fill="none"/>
 <polygon points="166,453 168,450 165,447 164,451 166,453" stroke="#CD0000" fill="#CD0000"/>
 <polygon points="273,796 274,799 278,799 276,796 273,796" stroke="#CD0000" fill="#CD0000"/>
 <polygon points="346,839 279,839 276,842 276,865 343,865 346,862 346,839" stroke="#C0C0C0" fill="#FFFFFF"/>
 <polyline points="343,842 276,842" stroke="#C0C0C0" fill="none"/>
 <polyline points="343,842 343,865" stroke="#C0C0C0" fill="none"/>
 <polyline points="343,842 346,839" stroke="#C0C0C0" fill="none"/>
 <text x="284" y="855" fill="#000000" font-family="Arial" font-size="12">misc2.c</text>
 <polyline points="165,447 168,471 173,505 179,546 187,591 196,639 207,687 219,732 231,773 245,806 260,830 261,831 262,832 263,833 264,834 265,835 266,836 268,837 269,838 271,839 272,840" stroke="#0000CD" fill="none"/>
 <polygon points="272,838 276,842 271,841 272,838" stroke="#0000CD" fill="#0000CD"/>
 <polygon points="55,399 18,399 15,402 15,425 52,425 55,422 55,399" stroke="#C0C0C0" fill="#FFFFFF"/>
 <polyline points="52,402 15,402" stroke="#C0C0C0" fill="none"/>
 <polyline points="52,402 52,425" stroke="#C0C0C0" fill="none"/>
 <polyline points="52,402 55,399" stroke="#C0C0C0" fill="none"/>
 <text x="23" y="415" fill="#000000" font-family="Arial" font-size="12">ui.c</text>
 <polyline points="55,415 62,416 69,418 77,419 85,421 93,422 101,423 110,425 118,426 126,428 133,429" stroke="#0000CD" fill="none"/>
 <polygon points="134,427 138,430 133,431 134,427" stroke="#0000CD" fill="#0000CD"/>
 <polygon points="66,443 7,443 4,446 4,469 63,469 66,466 66,443" stroke="#C0C0C0" fill="#FFFFFF"/>
 <polyline points="63,446 4,446" stroke="#C0C0C0" fill="none"/>
 <polyline points="63,446 63,469" stroke="#C0C0C0" fill="none"/>
 <polyline points="63,446 66,443" stroke="#C0C0C0" fill="none"/>
 <text x="12" y="459" fill="#000000" font-family="Arial" font-size="12">main.c</text>
 <polyline points="66,451 72,450 79,449 86,447 93,446 100,445 107,444 114,443 120,441 127,440 133,439" stroke="#0000CD" fill="none"/>
 <polygon points="133,437 138,438 134,441 133,437" stroke="#0000CD" fill="#0000CD"/>
</svg>
